<svg height="300" version="1.1" width="270" xmlns="http://www.w3.org/2000/svg" style="overflow: hidden; position: relative; left: -0.599976px; top: -0.599999px;" viewBox="-16.145264545283393 0.23300696667294293 270 300" preserveAspectRatio="xMinYMin"><rect x="-2362.9500000000003" y="-2548.2900000000004" width="5735.880000000001" height="6373.200000000001" r="0" rx="0" ry="0" fill="#ffffff" stroke="none" transform="matrix(0.2354,0,0,0.2354,0,0)" style="fill-opacity: 0;" stroke-width="4.2488" fill-opacity="0"/><path style="opacity: 1; cursor: pointer; stroke-opacity: 1; stroke-linejoin: round; fill-opacity: 1;" fill="#88a4bc" stroke="#ffffff" d="M796.5,389.2L773.5,375.09999999999997L772.9,374.9L770.8,373.9L768.9,372.29999999999995L763.3,366.4L760.6999999999999,367.2L759.8,368.2L758.6999999999999,370.2L757.5999999999999,371.3L755.8999999999999,371.90000000000003L754.4999999999999,372.00000000000006L751.9999999999999,371.80000000000007L750.1999999999999,372.30000000000007L747.1999999999999,373.80000000000007L746.4,373.4000000000001L745.9,370.5000000000001L745.1999999999999,368.10000000000014L744.9999999999999,367.60000000000014L744.3999999999999,367.0000000000001L743.3999999999999,366.4000000000001L740.0999999999999,365.30000000000007L738.3999999999999,364.1000000000001L735.9999999999999,360.7000000000001L731.7999999999998,361.2000000000001L730.6999999999998,361.2000000000001L725.8999999999999,360.2000000000001L725.2999999999998,360.0000000000001L724.6999999999998,359.5000000000001L723.8999999999999,358.60000000000014L722.7999999999998,356.90000000000015L721.8999999999999,355.10000000000014L721.2999999999998,353.5000000000001L719.7999999999998,350.4000000000001L718.1999999999998,347.6000000000001L717.1999999999998,346.80000000000007L716.2999999999998,346.4000000000001L714.4999999999999,346.2000000000001L713.5999999999999,346.4000000000001L711.9999999999999,347.2000000000001L710.8999999999999,346.9000000000001L706.3999999999999,344.7000000000001L703.6999999999998,343.7000000000001L703.0999999999998,343.6000000000001L701.8999999999997,342.50000000000006L697.0999999999998,336.20000000000005L695.0999999999998,332.90000000000003L694.8999999999997,331.90000000000003L693.6999999999997,330.90000000000003L689.4999999999997,329.50000000000006L687.9999999999997,326.80000000000007L687.1999999999997,324.6000000000001L686.6999999999997,322.50000000000006L684.8999999999997,322.20000000000005L676.7999999999997,324.00000000000006L675.4999999999998,323.70000000000005L674.1999999999998,323.50000000000006L673.5999999999998,323.6000000000001L671.7999999999998,324.1000000000001L669.1999999999998,325.1000000000001L667.8999999999999,325.1000000000001L667.3999999999999,324.9000000000001L666.8999999999999,323.9000000000001L666.6999999999998,322.6000000000001L666.8999999999999,321.6000000000001L667.5999999999999,320.2000000000001L668.9999999999999,317.8000000000001L672.8999999999999,314.3000000000001L675.5999999999999,312.40000000000015L677.1999999999999,310.70000000000016L683.4999999999999,300.40000000000015L679.1999999999999,298.50000000000017L677.9999999999999,297.70000000000016L678.2999999999998,295.90000000000015L684.0999999999998,286.3000000000001L694.1999999999998,282.7000000000001L694.3999999999999,282.6000000000001L700.1999999999998,282.50000000000006L702.1999999999998,282.80000000000007L703.2999999999998,283.30000000000007L704.8999999999999,282.9000000000001L707.5999999999999,279.80000000000007L710.3,279.50000000000006L711.5,279.1000000000001L712.3,278.4000000000001L713,277.5000000000001L713.5,275.7000000000001L712.5,270.8000000000001L712.1,265.0000000000001L711.5,263.0000000000001L710.7,261.8000000000001L706.3000000000001,256.8000000000001L704.8000000000001,255.90000000000012L703.0000000000001,254.6000000000001L701.1000000000001,252.90000000000012L700.2000000000002,251.90000000000012L699.7000000000002,251.0000000000001L696.7000000000002,240.5000000000001L724.1000000000001,252.90000000000012L733.7000000000002,257.4000000000001L746.9000000000002,263.7000000000001L768.4000000000002,273.8000000000001L774.1000000000003,275.90000000000015L805.7000000000003,276.10000000000014L828.9000000000003,276.60000000000014L833.3000000000003,277.5000000000001L832.8000000000003,278.4000000000001L830.1000000000003,282.4000000000001L828.4000000000002,286.0000000000001L827.7000000000002,289.9000000000001L828.0000000000001,294.80000000000007L830.5000000000001,302.70000000000005L831.1000000000001,306.80000000000007L829.6000000000001,310.6000000000001L820.3000000000002,322.30000000000007L813.7000000000002,330.4000000000001L811.9000000000002,333.1000000000001L807.0000000000002,345.7000000000001L794.3000000000002,360.9000000000001L791.3000000000002,367.2000000000001L790.5000000000002,374.0000000000001L791.0000000000002,376.10000000000014L791.5000000000002,378.8000000000001L792.8000000000002,381.8000000000001L794.4000000000002,383.90000000000015L795.8000000000002,386.8000000000001L796.5000000000002,389.2000000000001Z" class="sm_state sm_state_CRI1327" opacity="1" stroke-opacity="1" stroke-width="2.1509550000000006" stroke-linejoin="round" transform="matrix(0.2354,0,0,0.2354,0,0)" fill-opacity="1"/><path style="opacity: 1; cursor: pointer; stroke-opacity: 1; stroke-linejoin: round; fill-opacity: 1;" fill="#88a4bc" stroke="#ffffff" d="M735.9,98.4L736.5,98.9L739,99.60000000000001L739.7,99.9L740.7,100.60000000000001L741.8000000000001,101.60000000000001L742.7,102.60000000000001L743.3000000000001,103.7L743.4000000000001,105.2L742.8000000000001,109.7L743.0000000000001,111.60000000000001L744.5000000000001,113.2L745.3000000000001,113.9L747.2,115.10000000000001L748,115.80000000000001L749,117.10000000000001L748.8,117.7L747.8,117.4L746.1999999999999,117.30000000000001L743.9,117.9L737.5,118.5L736.2,118.7L733.9000000000001,119.5L730.2,121.9L728,124.30000000000001L727.2,124.9L725.1,126L723.2,127.3L722,128.4L721.6,129.70000000000002L721.4,131.70000000000002L721.1,138.50000000000003L721.2,140.60000000000002L720,150.20000000000002L720,151.50000000000003L720.2,152.00000000000003L721.2,153.30000000000004L721.8000000000001,154.30000000000004L721.9000000000001,155.70000000000005L721.6000000000001,157.50000000000006L721.8000000000002,158.90000000000006L722.7000000000002,161.10000000000005L722.8000000000002,162.80000000000004L721.6000000000001,167.50000000000003L719.6000000000001,170.50000000000003L718.7000000000002,171.40000000000003L717.8000000000002,172.10000000000002L716.6000000000001,172.3L716.1000000000001,172.5L715.7000000000002,173L713.9000000000002,176.4L713.3000000000002,177.4L712.5000000000002,179L712.2000000000003,181.2L712.7000000000003,184.5L713.0000000000002,185.3L715.9000000000002,190.8L716.6000000000003,193.20000000000002L717.0000000000002,194.3L718.5000000000002,196.60000000000002L718.6000000000003,197.70000000000002L718.4000000000002,199.3L717.7000000000002,202.4L717.5000000000001,205.1L717.6000000000001,205.79999999999998L717.3000000000002,206.99999999999997L716.7000000000002,208.59999999999997L714.0000000000001,214.29999999999995L713.4000000000001,215.39999999999995L703.0000000000001,226.49999999999994L694.9000000000001,227.29999999999995L690.7,232.79999999999995L689.4000000000001,234.19999999999996L688.3000000000001,234.59999999999997L683.5000000000001,234.99999999999997L679.2000000000002,235.89999999999998L669.6000000000001,236.59999999999997L668.5000000000001,236.99999999999997L668.6000000000001,238.19999999999996L669.4000000000001,239.89999999999995L674.4000000000001,247.39999999999995L677.3000000000001,250.59999999999994L677.9000000000001,252.29999999999993L678.3000000000001,257.69999999999993L680.1,259.5999999999999L681.1,260.5999999999999L681.8000000000001,261.3999999999999L682.0000000000001,262.99999999999994L680.7000000000002,267.3999999999999L678.0000000000001,274.7999999999999L673.7000000000002,277.2999999999999L667.9000000000002,279.1999999999999L665.7000000000002,279.59999999999985L660.0000000000001,279.1999999999999L659.0000000000001,279.1999999999999L651.0000000000001,282.89999999999986L648.4000000000001,281.79999999999984L644.1000000000001,279.59999999999985L640.3000000000002,280.29999999999984L639.9000000000002,278.29999999999984L639.9000000000002,277.09999999999985L640.1000000000003,275.89999999999986L641.2000000000003,274.09999999999985L645.2000000000003,269.79999999999984L645.2000000000003,269.29999999999984L647.8000000000003,235.49999999999983L648.1000000000003,204.89999999999984L648.5000000000002,179.49999999999983L648.9000000000002,143.59999999999982L649.5000000000002,95.99999999999983L649.5000000000002,95.09999999999982L651.5000000000002,95.39999999999982L654.1000000000003,94.89999999999982L658.2000000000003,98.89999999999982L660.7000000000003,99.89999999999982L663.2000000000003,97.99999999999982L664.7000000000003,97.99999999999982L667.4000000000003,100.59999999999981L672.8000000000003,97.09999999999981L676.5000000000003,97.99999999999982L679.1000000000004,95.39999999999982L682.1000000000004,94.89999999999982L684.5000000000003,96.49999999999982L685.5000000000003,100.29999999999981L698.7000000000004,110.79999999999981L700.2000000000004,111.49999999999982L702.2000000000004,111.79999999999981L704.4000000000004,111.3999999999998L707.4000000000004,109.29999999999981L708.9000000000004,108.79999999999981L714.9000000000004,109.99999999999982L715.7000000000004,109.49999999999982L720.2000000000004,104.19999999999982L734.7000000000004,98.69999999999982L735.9000000000004,98.39999999999982Z" class="sm_state sm_state_CRI1328" opacity="1" stroke-opacity="1" stroke-width="2.1509550000000006" stroke-linejoin="round" transform="matrix(0.2354,0,0,0.2354,0,0)" fill-opacity="1"/><path style="opacity: 1; cursor: pointer; stroke-opacity: 1; stroke-linejoin: round; fill-opacity: 1;" fill="#88a4bc" stroke="#ffffff" d="M916.5,477.3L914.3,475.5L913.5999999999999,475L909.9999999999999,473.9L906.2999999999998,470.2L905.1999999999998,468.5L903.7999999999998,464.7L902.6999999999998,462.8L901.7999999999998,462.3L900.3999999999999,461.6L892.7999999999998,459.5L891.5999999999998,458.6L890.8999999999997,457.40000000000003L890.5999999999998,456.6L888.1999999999998,444.70000000000005L887.3999999999999,442.50000000000006L886.5999999999999,441.1000000000001L885.8,440.4000000000001L877.9,435.9000000000001L877.1,435.30000000000007L875.5,433.80000000000007L866.9,422.6000000000001L866,422.4000000000001L864.5,422.2000000000001L859.8,422.6000000000001L856.8,423.1000000000001L856,423.1000000000001L854.9,422.9000000000001L853.3,422.4000000000001L849.9,420.7000000000001L847.8,419.3000000000001L846.8,418.7000000000001L842.6999999999999,417.4000000000001L840.5999999999999,416.30000000000007L836.4999999999999,412.80000000000007L835.5999999999999,412.1000000000001L834.4999999999999,411.6000000000001L833.7999999999998,411.6000000000001L832.8999999999999,411.7000000000001L831.1999999999998,412.6000000000001L830.3999999999999,413.1000000000001L829.8999999999999,413.7000000000001L827.2999999999998,417.3000000000001L826.9999999999999,417.7000000000001L825.9999999999999,418.0000000000001L821.8999999999999,418.4000000000001L820.6999999999998,418.6000000000001L819.8999999999999,419.00000000000006L819.0999999999999,419.80000000000007L818.1999999999999,420.50000000000006L817.1999999999999,420.30000000000007L816.6999999999999,418.6000000000001L816.4,417.30000000000007L814.9,416.1000000000001L809.1,414.50000000000006L806.4,412.50000000000006L805.6999999999999,411.80000000000007L803.8,409.20000000000005L796.5,389.20000000000005L795.8,386.80000000000007L794.4,383.9000000000001L792.8,381.80000000000007L791.5,378.80000000000007L791,376.1000000000001L790.5,374.00000000000006L791.3,367.20000000000005L794.3,360.90000000000003L807,345.70000000000005L811.9,333.1L813.6999999999999,330.40000000000003L820.3,322.3L829.5999999999999,310.6L831.0999999999999,306.8L830.4999999999999,302.7L827.9999999999999,294.8L827.6999999999999,289.90000000000003L828.4,286.00000000000006L830.1,282.40000000000003L832.8000000000001,278.40000000000003L833.3000000000001,277.50000000000006L828.9000000000001,276.6000000000001L805.7,276.1000000000001L774.1,275.9000000000001L768.4,273.80000000000007L746.9,263.70000000000005L733.6999999999999,257.40000000000003L724.0999999999999,252.90000000000003L696.6999999999999,240.50000000000003L699.5999999999999,230.40000000000003L701.0999999999999,228.50000000000003L702.9999999999999,226.50000000000003L713.3999999999999,215.40000000000003L713.9999999999999,214.30000000000004L716.6999999999999,208.60000000000005L717.3,207.00000000000006L717.5999999999999,205.80000000000007L717.4999999999999,205.10000000000008L717.6999999999999,202.4000000000001L718.4,199.3000000000001L718.6,197.7000000000001L718.5,196.6000000000001L717,194.3000000000001L716.6,193.2000000000001L715.9,190.8000000000001L713,185.3000000000001L712.7,184.50000000000009L712.2,181.20000000000007L712.5,179.00000000000009L713.3,177.4000000000001L713.9,176.4000000000001L715.6999999999999,173.00000000000009L716.0999999999999,172.50000000000009L716.5999999999999,172.3000000000001L717.8,172.1000000000001L718.6999999999999,171.40000000000012L719.5999999999999,170.5000000000001L721.5999999999999,167.5000000000001L722.8,162.80000000000013L722.6999999999999,161.10000000000014L721.8,158.90000000000015L721.5999999999999,157.50000000000014L721.8999999999999,155.70000000000013L721.7999999999998,154.30000000000013L721.1999999999998,153.30000000000013L720.1999999999998,152.0000000000001L719.9999999999998,151.5000000000001L719.9999999999998,150.2000000000001L721.1999999999998,140.6000000000001L721.0999999999998,138.5000000000001L721.3999999999997,131.7000000000001L721.5999999999998,129.7000000000001L721.9999999999998,128.4000000000001L723.1999999999998,127.3000000000001L725.0999999999998,126.0000000000001L727.1999999999998,124.9000000000001L727.9999999999998,124.30000000000011L730.1999999999998,121.9000000000001L733.8999999999999,119.5000000000001L736.1999999999998,118.7000000000001L737.4999999999998,118.5000000000001L743.8999999999997,117.9000000000001L746.1999999999997,117.30000000000011L747.7999999999997,117.4000000000001L748.7999999999997,117.7000000000001L748.9999999999998,117.10000000000011L747.9999999999998,115.80000000000011L747.1999999999998,115.10000000000011L745.2999999999998,113.9000000000001L744.4999999999999,113.2000000000001L742.9999999999999,111.60000000000011L742.7999999999998,109.7000000000001L743.3999999999999,105.2000000000001L743.2999999999998,103.7000000000001L742.6999999999998,102.60000000000011L741.7999999999998,101.60000000000011L740.6999999999998,100.60000000000011L739.6999999999998,99.9000000000001L738.9999999999998,99.60000000000011L736.4999999999998,98.9000000000001L735.8999999999997,98.4000000000001L750.1999999999997,94.9000000000001L757.8999999999997,91.0000000000001L758.5999999999998,84.9000000000001L756.5999999999998,77.0000000000001L756.3999999999997,67.4000000000001L756.4999999999998,66.30000000000011L756.1999999999998,65.20000000000012L757.7999999999998,64.00000000000011L759.0999999999998,64.30000000000011L760.4999999999998,64.30000000000011L761.9999999999998,64.4000000000001L766.3999999999997,69.60000000000011L771.9999999999998,79.9000000000001L775.9999999999998,90.9000000000001L775.4999999999998,97.9000000000001L772.2999999999997,93.9000000000001L766.4999999999998,79.7000000000001L770.1999999999998,97.5000000000001L769.8999999999999,104.7000000000001L763.4999999999999,110.10000000000011L766.8999999999999,109.50000000000011L769.0999999999999,107.90000000000012L771.3,106.00000000000011L774.0999999999999,104.20000000000012L773.0999999999999,105.30000000000011L772.8999999999999,106.70000000000012L773.2999999999998,108.30000000000011L774.0999999999998,110.10000000000011L774.9999999999998,107.50000000000011L775.8999999999997,102.40000000000012L777.0999999999998,99.60000000000012L787.7999999999998,129.10000000000014L801.0999999999998,160.60000000000014L816.7999999999998,187.00000000000014L858.5999999999998,242.00000000000014L861.8999999999997,244.60000000000014L875.8999999999997,261.70000000000016L884.4999999999998,270.3000000000002L889.6999999999998,267.4000000000002L891.6999999999998,268.6000000000002L897.4999999999998,269.7000000000002L898.6999999999998,271.4000000000002L898.8999999999999,275.5000000000002L899.5999999999999,279.0000000000002L901.1999999999999,282.10000000000025L903.9999999999999,285.0000000000002L914.1999999999999,300.2000000000002L917.4999999999999,302.6000000000002L930.0999999999999,319.7000000000002L939.5999999999999,328.7000000000002L945.1999999999999,327.0000000000002L946.4999999999999,330.5000000000002L947.6999999999999,339.5000000000002L949.6999999999999,343.60000000000025L953.0999999999999,346.2000000000003L967.8,351.3000000000003L973,351.8000000000003L978.2,351.7000000000003L983,352.10000000000025L987.3,354.30000000000024L992.6999999999999,362.60000000000025L996.5999999999999,365.0000000000002L998.9999999999999,373.4000000000002L997.2999999999998,373.5000000000002L993.9999999999999,371.7000000000002L990.5999999999999,371.1000000000002L989.0999999999999,373.50000000000017L988.0999999999999,382.1000000000002L986.6999999999999,384.9000000000002L983.8,385.4000000000002L979.6999999999999,384.7000000000002L975.9,383.5000000000002L973.8,382.5000000000002L971.4,379.9000000000002L968.6,374.5000000000002L966.4,372.0000000000002L964.6,372.80000000000024L962.5,372.0000000000002L953.4,364.2000000000002L940.6999999999999,359.1000000000002L936.5999999999999,359.6000000000002L932.5999999999999,363.1000000000002L930.0999999999999,366.6000000000002L929.6999999999999,368.6000000000002L932.3,373.4000000000002L933.8,379.5000000000002L934.8,380.7000000000002L936.1999999999999,381.2000000000002L937.1999999999999,381.80000000000024L936.9,383.60000000000025L933.6,385.5000000000002L921.9,387.10000000000025L917.8,388.60000000000025L916,391.7000000000003L915.4,395.90000000000026L916.5,477.3000000000003Z" class="sm_state sm_state_CRI1329" opacity="1" stroke-opacity="1" stroke-width="2.1509550000000006" stroke-linejoin="round" transform="matrix(0.2354,0,0,0.2354,0,0)" fill-opacity="1"/><path style="opacity: 1; cursor: pointer; stroke-opacity: 1; stroke-linejoin: round; fill-opacity: 1;" fill="#88a4bc" stroke="#ffffff" d="M696.7,240.5L699.7,251L700.2,251.9L701.1,252.9L703,254.6L704.8,255.9L706.3,256.8L710.6999999999999,261.8L711.4999999999999,263L712.0999999999999,265L712.4999999999999,270.8L713.4999999999999,275.7L712.9999999999999,277.5L712.2999999999998,278.4L711.4999999999999,279.09999999999997L710.2999999999998,279.49999999999994L707.5999999999998,279.79999999999995L704.8999999999997,282.9L703.2999999999997,283.29999999999995L702.1999999999997,282.79999999999995L700.1999999999997,282.49999999999994L694.3999999999997,282.59999999999997L694.1999999999997,282.7L684.0999999999997,286.3L678.2999999999997,295.90000000000003L677.9999999999998,297.70000000000005L679.1999999999998,298.50000000000006L683.4999999999998,300.40000000000003L677.1999999999998,310.70000000000005L675.5999999999998,312.40000000000003L672.8999999999997,314.3L668.9999999999998,317.8L667.5999999999998,320.2L666.8999999999997,321.59999999999997L666.6999999999997,322.59999999999997L666.8999999999997,323.9L667.3999999999997,324.9L667.8999999999997,325.09999999999997L669.1999999999997,325.09999999999997L671.7999999999997,324.09999999999997L673.5999999999997,323.59999999999997L674.1999999999997,323.49999999999994L675.4999999999997,323.69999999999993L676.7999999999996,323.99999999999994L684.8999999999996,322.19999999999993L686.6999999999996,322.49999999999994L687.1999999999996,324.59999999999997L687.9999999999995,326.79999999999995L689.4999999999995,329.49999999999994L693.6999999999996,330.8999999999999L694.8999999999996,331.8999999999999L695.0999999999997,332.8999999999999L697.0999999999997,336.19999999999993L701.8999999999996,342.49999999999994L703.0999999999997,343.59999999999997L703.6999999999997,343.7L706.3999999999997,344.7L710.8999999999997,346.9L711.9999999999998,347.2L713.5999999999998,346.4L714.4999999999998,346.2L716.2999999999997,346.4L717.1999999999997,346.79999999999995L718.1999999999997,347.59999999999997L719.7999999999997,350.4L721.2999999999997,353.5L721.8999999999997,355.1L722.7999999999997,356.90000000000003L723.8999999999997,358.6L724.6999999999997,359.5L725.2999999999997,360L725.8999999999997,360.2L730.6999999999997,361.2L731.7999999999997,361.2L735.9999999999998,360.7L738.3999999999997,364.09999999999997L740.0999999999998,365.29999999999995L743.3999999999997,366.4L744.3999999999997,367L744.9999999999998,367.6L745.1999999999998,368.1L745.8999999999999,370.5L746.3999999999999,373.4L747.1999999999998,373.79999999999995L750.1999999999998,372.29999999999995L751.9999999999998,371.79999999999995L754.4999999999998,371.99999999999994L755.8999999999997,371.8999999999999L757.5999999999998,371.2999999999999L758.6999999999998,370.1999999999999L759.7999999999998,368.1999999999999L760.6999999999998,367.1999999999999L763.2999999999998,366.39999999999986L768.8999999999999,372.29999999999984L770.7999999999998,373.89999999999986L772.8999999999999,374.89999999999986L773.4999999999999,375.09999999999985L796.4999999999999,389.1999999999999L803.7999999999998,409.1999999999999L805.6999999999998,411.7999999999999L806.3999999999999,412.4999999999999L809.0999999999999,414.4999999999999L804.3,419.4999999999999L803.8,420.2999999999999L803.0999999999999,421.4999999999999L801.5999999999999,426.89999999999986L800.5999999999999,429.09999999999985L794.5999999999999,435.79999999999984L793.8999999999999,436.89999999999986L793.6999999999998,437.4999999999999L791.4999999999998,448.6999999999999L791.5999999999998,449.2999999999999L792.2999999999998,449.9999999999999L794.2999999999998,450.39999999999986L794.6999999999998,450.59999999999985L795.8999999999999,451.6999999999999L796.3999999999999,451.89999999999986L798.0999999999999,451.79999999999984L798.4999999999999,452.09999999999985L799.5999999999999,454.49999999999983L799.8,455.6999999999998L799.9,458.3999999999998L799.5,459.6999999999998L797.8,462.79999999999984L797.5,463.99999999999983L797.4,464.8999999999998L798,469.99999999999983L797.8,471.1999999999998L797.5,471.99999999999983L797.1,472.3999999999998L795.5,473.3999999999998L794.7,474.0999999999998L792.3000000000001,477.3999999999998L791.5000000000001,478.0999999999998L790.4000000000001,478.2999999999998L789.2,477.9999999999998L788.2,477.39999999999975L786.9000000000001,475.89999999999975L786.0000000000001,475.19999999999976L785.4000000000001,474.9999999999998L784.1000000000001,474.89999999999975L782.2000000000002,475.19999999999976L779.8000000000002,475.39999999999975L779.3000000000002,475.09999999999974L759.4000000000002,462.19999999999976L757.9000000000002,460.39999999999975L757.1000000000003,459.09999999999974L755.5000000000002,453.39999999999975L755.3000000000002,452.19999999999976L754.5000000000002,450.89999999999975L749.5000000000002,444.69999999999976L746.5000000000002,441.7999999999998L744.4000000000002,440.7999999999998L743.1000000000003,440.4999999999998L742.6000000000003,440.4999999999998L741.2000000000003,440.7999999999998L740.1000000000003,441.2999999999998L739.7000000000003,441.5999999999998L737.8000000000003,444.2999999999998L737.0000000000003,444.9999999999998L735.9000000000003,445.2999999999998L734.2000000000003,444.7999999999998L723.3000000000003,439.8999999999998L721.8000000000003,438.49999999999983L721.0000000000003,437.59999999999985L720.4000000000003,436.6999999999999L719.4000000000003,434.59999999999985L718.0000000000003,430.09999999999985L717.6000000000004,427.59999999999985L717.6000000000004,426.29999999999984L717.9000000000003,424.09999999999985L717.1000000000004,422.6999999999999L715.6000000000004,420.7999999999999L708.5000000000003,413.5999999999999L708.3000000000003,412.9999999999999L707.4000000000003,408.6999999999999L707.1000000000004,407.7999999999999L705.5000000000003,404.9999999999999L704.8000000000003,404.1999999999999L704.1000000000003,403.6999999999999L702.8000000000003,403.59999999999985L701.6000000000003,403.89999999999986L700.6000000000003,404.39999999999986L699.9000000000002,405.1999999999999L699.6000000000003,405.6999999999999L696.2000000000003,404.59999999999985L681.9000000000003,394.99999999999983L676.9000000000003,390.09999999999985L673.3000000000003,383.1999999999999L668.5000000000003,380.9999999999999L667.7000000000004,379.5999999999999L668.2000000000004,378.4999999999999L668.7000000000004,377.4999999999999L668.9000000000004,376.5999999999999L668.9000000000004,375.19999999999993L668.5000000000005,372.49999999999994L668.0000000000005,371.19999999999993L667.5000000000005,370.3999999999999L665.9000000000004,369.69999999999993L663.9000000000004,369.3999999999999L661.0000000000005,369.49999999999994L659.0000000000005,369.79999999999995L658.0000000000005,369.59999999999997L656.3000000000004,368.99999999999994L654.7000000000004,367.49999999999994L653.9000000000004,366.49999999999994L653.5000000000005,365.69999999999993L653.5000000000005,365.0999999999999L653.6000000000005,363.5999999999999L654.0000000000005,361.7999999999999L654.0000000000005,359.8999999999999L653.6000000000005,358.0999999999999L653.0000000000005,357.0999999999999L652.2000000000005,356.4999999999999L651.7000000000005,356.2999999999999L649.7000000000005,356.0999999999999L639.9000000000005,356.9999999999999L636.7000000000005,356.6999999999999L633.8000000000005,355.4999999999999L626.0000000000006,355.6999999999999L623.7000000000006,355.2999999999999L623.3000000000006,354.8999999999999L621.8000000000006,353.0999999999999L621.0000000000007,352.4999999999999L619.8000000000006,351.39999999999986L616.6000000000006,351.09999999999985L607.2000000000006,351.59999999999985L601.5000000000006,352.6999999999999L598.9000000000005,352.6999999999999L597.7000000000005,352.89999999999986L597.1000000000005,353.29999999999984L597.1000000000005,353.79999999999984L597.9000000000004,358.1999999999998L597.7000000000004,359.5999999999998L597.1000000000004,360.7999999999998L596.3000000000004,361.5999999999998L593.8000000000004,363.5999999999998L592.9000000000004,364.5999999999998L591.6000000000005,367.2999999999998L591.0000000000005,367.7999999999998L590.3000000000004,368.0999999999998L589.1000000000004,368.1999999999998L588.0000000000003,367.6999999999998L586.6000000000004,366.0999999999998L585.6000000000004,365.5999999999998L584.2000000000004,365.4999999999998L580.8000000000004,366.39999999999975L579.4000000000004,366.39999999999975L577.9000000000004,365.69999999999976L571.1000000000005,366.7999999999998L568.8000000000005,366.5999999999998L568.1000000000005,366.0999999999998L566.6000000000005,364.5999999999998L565.2000000000005,362.7999999999998L564.3000000000005,360.69999999999976L563.7000000000005,358.9999999999998L562.2000000000005,351.5999999999998L562.1000000000005,351.0999999999998L557.2000000000005,342.5999999999998L556.7000000000005,341.1999999999998L556.6000000000005,340.5999999999998L556.8000000000005,336.2999999999998L556.2000000000005,333.5999999999998L554.5000000000005,327.9999999999998L554.5000000000005,326.7999999999998L555.0000000000005,325.7999999999998L555.9000000000004,325.19999999999976L557.8000000000004,324.7999999999998L562.0000000000005,325.0999999999998L563.3000000000004,324.7999999999998L564.3000000000004,324.2999999999998L564.7000000000004,323.69999999999976L565.1000000000004,322.7999999999998L565.4000000000003,320.9999999999998L565.1000000000004,318.89999999999975L564.0000000000003,316.89999999999975L562.8000000000003,315.09999999999974L561.6000000000003,313.89999999999975L560.7000000000003,313.19999999999976L559.1000000000003,312.39999999999975L557.0000000000002,311.39999999999975L559.0000000000002,309.7999999999997L560.6000000000003,309.7999999999997L560.9000000000002,309.39999999999975L561.2000000000002,307.69999999999976L561.6000000000001,306.7999999999998L565.6000000000001,301.7999999999998L565.7000000000002,300.4999999999998L566.3000000000002,299.69999999999976L567.8000000000002,298.59999999999974L571.5000000000002,296.59999999999974L574.1000000000003,294.09999999999974L574.6000000000003,293.2999999999997L576.3000000000003,292.1999999999997L583.1000000000003,289.1999999999997L592.8000000000003,288.3999999999997L598.2000000000003,287.29999999999967L602.4000000000003,288.49999999999966L606.8000000000003,289.29999999999967L608.7000000000003,289.79999999999967L611.3000000000003,290.0999999999997L612.4000000000003,290.49999999999966L616.3000000000003,289.89999999999964L631.0000000000003,285.7999999999996L637.1000000000004,283.7999999999996L640.3000000000004,280.2999999999996L644.1000000000004,279.5999999999996L648.4000000000003,281.7999999999996L651.0000000000003,282.89999999999964L659.0000000000003,279.19999999999965L660.0000000000003,279.19999999999965L665.7000000000004,279.5999999999996L667.9000000000004,279.19999999999965L673.7000000000004,277.29999999999967L678.0000000000003,274.79999999999967L680.7000000000004,267.3999999999997L682.0000000000003,262.9999999999997L681.8000000000003,261.3999999999997L681.1000000000003,260.5999999999997L680.1000000000003,259.5999999999997L678.3000000000003,257.6999999999997L677.9000000000003,252.2999999999997L677.3000000000003,250.5999999999997L674.4000000000003,247.39999999999972L669.4000000000003,239.89999999999972L668.6000000000004,238.19999999999973L668.5000000000003,236.99999999999974L669.6000000000004,236.59999999999974L679.2000000000004,235.89999999999975L683.5000000000003,234.99999999999974L688.3000000000003,234.59999999999974L689.4000000000003,234.19999999999973L690.7000000000003,232.79999999999973L694.9000000000003,227.29999999999973L703.0000000000003,226.49999999999972L701.1000000000004,228.49999999999972L699.6000000000004,230.39999999999972L696.7000000000004,240.49999999999972Z" class="sm_state sm_state_CRI1331" opacity="1" stroke-opacity="1" stroke-width="2.1509550000000006" stroke-linejoin="round" transform="matrix(0.2354,0,0,0.2354,0,0)" fill-opacity="1"/><path style="opacity: 1; cursor: pointer; stroke-opacity: 1; stroke-linejoin: round; fill-opacity: 1;" fill="#88a4bc" stroke="#ffffff" d="M5.1,1262.8L1,1263L3.9,1258.1L6.5,1256L9.6,1254.2L12.6,1253.6000000000001L12.6,1255.8000000000002L12.4,1258.7000000000003L9.600000000000001,1261.8000000000002L5.100000000000001,1262.8000000000002ZM712.5,559.0999999999999L710.8,559.8L708.0999999999999,559.3L706.8,558.0999999999999L709.5999999999999,556.5999999999999L712.8,556.4999999999999L712.5,559.0999999999999ZM414.8,331.9999999999999L415.3,331.39999999999986L417.6,330.29999999999984L419,327.39999999999986L420.2,326.4999999999999L420.8,325.89999999999986L421.2,324.9999999999999L421.9,322.9999999999999L422.79999999999995,321.39999999999986L423.99999999999994,320.39999999999986L424.09999999999997,319.4999999999999L423.49999999999994,318.7999999999999L423.19999999999993,317.7999999999999L423.29999999999995,316.4999999999999L425.49999999999994,307.89999999999986L426.3999999999999,305.6999999999999L426.99999999999994,304.2999999999999L426.8999999999999,303.6999999999999L426.49999999999994,303.2999999999999L423.29999999999995,302.5999999999999L422.29999999999995,301.9999999999999L421.99999999999994,301.5999999999999L421.69999999999993,300.2999999999999L421.49999999999994,298.9999999999999L420.99999999999994,297.9999999999999L419.8999999999999,295.9999999999999L418.69999999999993,294.89999999999986L417.79999999999995,293.59999999999985L416.79999999999995,292.99999999999983L415.09999999999997,292.3999999999998L413.7,291.5999999999998L412.4,291.2999999999998L410.4,291.2999999999998L409.2,290.9999999999998L407.7,290.19999999999976L405.8,289.7999999999998L404.40000000000003,289.7999999999998L402.3,290.0999999999998L401.40000000000003,289.8999999999998L400.50000000000006,289.49999999999983L399.70000000000005,288.6999999999998L398.90000000000003,287.6999999999998L398.50000000000006,286.3999999999998L399.50000000000006,284.6999999999998L401.50000000000006,282.79999999999984L406.90000000000003,280.1999999999998L409.20000000000005,279.49999999999983L410.6,279.3999999999998L411.8,280.49999999999983L412.2,280.6999999999998L413.3,280.3999999999998L418.90000000000003,277.0999999999998L420.00000000000006,276.5999999999998L424.80000000000007,275.4999999999998L426.1000000000001,273.69999999999976L428.30000000000007,266.4999999999998L433.30000000000007,270.89999999999975L446.6000000000001,276.39999999999975L448.30000000000007,277.2999999999997L449.9000000000001,276.6999999999997L453.4000000000001,278.0999999999997L461.80000000000007,282.99999999999966L465.70000000000005,284.29999999999967L469.90000000000003,284.3999999999997L473.90000000000003,282.6999999999997L476.40000000000003,284.7999999999997L482.00000000000006,288.2999999999997L484.50000000000006,290.39999999999975L484.50000000000006,291.7999999999997L480.1000000000001,292.89999999999975L480.30000000000007,296.09999999999974L482.9000000000001,299.7999999999997L485.80000000000007,302.59999999999974L484.00000000000006,303.19999999999976L482.40000000000003,304.39999999999975L479.70000000000005,307.09999999999974L482.90000000000003,308.59999999999974L486.8,308.9999999999997L494.7,308.7999999999997L494.7,310.1999999999997L491.59999999999997,312.2999999999997L487.7,313.89999999999975L484.3,316.19999999999976L482.8,320.09999999999974L482,320.9999999999997L476.8,323.9999999999997L475.90000000000003,325.59999999999974L474.8,329.69999999999976L473.90000000000003,331.39999999999975L467.00000000000006,327.9999999999998L463.30000000000007,327.69999999999976L461.80000000000007,330.69999999999976L462.70000000000005,332.4999999999998L466.1,336.7999999999998L465.6,337.5999999999998L458.5,341.0999999999998L457.3,341.3999999999998L456.5,342.5999999999998L451.3,345.1999999999998L450.2,346.99999999999983L445.4,362.29999999999984L443.4,366.1999999999998L440.79999999999995,369.5999999999998L439.19999999999993,369.5999999999998L433.0999999999999,356.8999999999998L414.7999999999999,332.0999999999998L414.7999999999999,331.9999999999998ZM433.2,247.69999999999987L435.3,248.89999999999986L436.2,248.79999999999987L438.4,249.29999999999987L439.59999999999997,250.39999999999986L441.4,250.79999999999987L443.7,250.79999999999987L443.7,252.19999999999987L441,253.09999999999988L437.6,253.8999999999999L433.90000000000003,254.2999999999999L430.20000000000005,253.7999999999999L426.40000000000003,252.1999999999999L424.40000000000003,250.1999999999999L421.40000000000003,244.5999999999999L425.50000000000006,243.1999999999999L427.30000000000007,242.99999999999991L434.30000000000007,244.1999999999999L440.80000000000007,246.1999999999999L440.80000000000007,247.6999999999999L433.20000000000005,247.6999999999999ZM559,309.7999999999999L557,311.3999999999999L559.1,312.3999999999999L560.7,313.19999999999993L561.6,313.8999999999999L562.8000000000001,315.0999999999999L564.0000000000001,316.8999999999999L565.1000000000001,318.8999999999999L565.4000000000001,320.99999999999994L565.1000000000001,322.79999999999995L564.7000000000002,323.69999999999993L564.3000000000002,324.29999999999995L563.3000000000002,324.79999999999995L562.0000000000002,325.09999999999997L557.8000000000002,324.79999999999995L555.9000000000002,325.19999999999993L555.0000000000002,325.79999999999995L554.5000000000002,326.79999999999995L554.5000000000002,327.99999999999994L556.2000000000003,333.59999999999997L556.8000000000003,336.29999999999995L556.6000000000003,340.59999999999997L556.7000000000003,341.2L557.2000000000003,342.59999999999997L562.1000000000003,351.09999999999997L562.2000000000003,351.59999999999997L563.7000000000003,358.99999999999994L564.3000000000003,360.69999999999993L565.2000000000003,362.79999999999995L566.6000000000003,364.59999999999997L568.1000000000003,366.09999999999997L568.8000000000003,366.59999999999997L571.1000000000003,366.79999999999995L577.9000000000002,365.69999999999993L579.4000000000002,366.3999999999999L580.8000000000002,366.3999999999999L584.2000000000002,365.49999999999994L585.6000000000001,365.59999999999997L586.6000000000001,366.09999999999997L588.0000000000001,367.7L589.1000000000001,368.2L590.3000000000002,368.09999999999997L591.0000000000002,367.79999999999995L591.6000000000003,367.29999999999995L592.9000000000002,364.59999999999997L593.8000000000002,363.59999999999997L596.3000000000002,361.59999999999997L597.1000000000001,360.79999999999995L597.7000000000002,359.59999999999997L597.9000000000002,358.2L597.1000000000003,353.8L597.1000000000003,353.3L597.7000000000003,352.90000000000003L598.9000000000003,352.70000000000005L601.5000000000003,352.70000000000005L607.2000000000004,351.6L616.6000000000004,351.1L619.8000000000004,351.40000000000003L621.0000000000005,352.50000000000006L621.8000000000004,353.1000000000001L623.3000000000004,354.9000000000001L623.7000000000004,355.30000000000007L626.0000000000003,355.70000000000005L633.8000000000003,355.50000000000006L636.7000000000003,356.70000000000005L639.9000000000003,357.00000000000006L649.7000000000003,356.1000000000001L651.7000000000003,356.30000000000007L652.2000000000003,356.50000000000006L653.0000000000002,357.1000000000001L653.6000000000003,358.1000000000001L654.0000000000002,359.9000000000001L654.0000000000002,361.80000000000007L653.6000000000003,363.6000000000001L653.5000000000002,365.1000000000001L653.5000000000002,365.7000000000001L653.9000000000002,366.5000000000001L654.7000000000002,367.5000000000001L656.3000000000002,369.0000000000001L658.0000000000002,369.60000000000014L659.0000000000002,369.8000000000001L661.0000000000002,369.5000000000001L663.9000000000002,369.4000000000001L665.9000000000002,369.7000000000001L667.5000000000002,370.4000000000001L668.0000000000002,371.2000000000001L668.5000000000002,372.5000000000001L668.9000000000002,375.2000000000001L668.9000000000002,376.6000000000001L668.7000000000002,377.50000000000006L668.2000000000002,378.50000000000006L667.7000000000002,379.6000000000001L668.5000000000001,381.00000000000006L673.3000000000001,383.20000000000005L676.9000000000001,390.1L681.9000000000001,395L696.2,404.6L699.6,405.70000000000005L699.9,405.20000000000005L700.6,404.40000000000003L701.6,403.90000000000003L702.8000000000001,403.6L704.1,403.70000000000005L704.8000000000001,404.20000000000005L705.5000000000001,405.00000000000006L707.1000000000001,407.80000000000007L707.4000000000001,408.70000000000005L708.3000000000001,413.00000000000006L708.5000000000001,413.6000000000001L715.6000000000001,420.80000000000007L717.1000000000001,422.70000000000005L717.9000000000001,424.1L717.6000000000001,426.3L717.6000000000001,427.6L718.0000000000001,430.1L719.4000000000001,434.6L720.4000000000001,436.70000000000005L721.0000000000001,437.6L721.8000000000001,438.5L723.3000000000001,439.9L734.2,444.79999999999995L735.9000000000001,445.29999999999995L737.0000000000001,444.99999999999994L737.8000000000001,444.29999999999995L739.7,441.59999999999997L740.1,441.29999999999995L741.2,440.79999999999995L742.6,440.49999999999994L743.1,440.49999999999994L744.4,440.79999999999995L746.5,441.79999999999995L749.5,444.69999999999993L754.5,450.8999999999999L755.3,452.19999999999993L755.5,453.3999999999999L757.1,459.0999999999999L757.9,460.3999999999999L759.4,462.19999999999993L779.3,475.0999999999999L779.8,475.3999999999999L782.1999999999999,475.19999999999993L784.0999999999999,474.8999999999999L785.3999999999999,474.99999999999994L785.9999999999999,475.19999999999993L786.8999999999999,475.8999999999999L788.1999999999998,477.3999999999999L789.1999999999998,477.99999999999994L790.3999999999999,478.29999999999995L791.4999999999999,478.09999999999997L792.2999999999998,477.4L794.6999999999998,474.09999999999997L795.4999999999998,473.4L797.0999999999998,472.4L797.4999999999998,472L797.7999999999997,471.2L797.9999999999998,470L797.3999999999997,464.9L797.4999999999998,464L797.7999999999997,462.8L799.4999999999998,459.7L799.8999999999997,458.4L799.7999999999997,455.7L799.5999999999997,454.5L798.4999999999997,452.1L798.0999999999997,451.8L796.3999999999996,451.90000000000003L795.8999999999996,451.70000000000005L794.6999999999996,450.6L794.2999999999996,450.40000000000003L792.2999999999996,450.00000000000006L791.5999999999996,449.30000000000007L791.4999999999995,448.70000000000005L793.6999999999996,437.50000000000006L793.8999999999996,436.90000000000003L794.5999999999997,435.8L800.5999999999997,429.1L801.5999999999997,426.90000000000003L803.0999999999997,421.50000000000006L803.7999999999997,420.30000000000007L804.2999999999997,419.50000000000006L809.0999999999997,414.50000000000006L814.8999999999996,416.1000000000001L816.3999999999996,417.30000000000007L816.6999999999996,418.6000000000001L817.1999999999996,420.30000000000007L818.1999999999996,420.50000000000006L819.0999999999996,419.80000000000007L819.8999999999995,419.00000000000006L820.6999999999995,418.6000000000001L821.8999999999995,418.4000000000001L825.9999999999995,418.0000000000001L826.9999999999995,417.7000000000001L827.2999999999995,417.3000000000001L829.8999999999995,413.7000000000001L830.3999999999995,413.1000000000001L831.1999999999995,412.6000000000001L832.8999999999995,411.7000000000001L833.7999999999995,411.6000000000001L834.4999999999995,411.6000000000001L835.5999999999996,412.1000000000001L836.4999999999995,412.80000000000007L840.5999999999996,416.30000000000007L842.6999999999996,417.4000000000001L846.7999999999996,418.7000000000001L847.7999999999996,419.3000000000001L849.8999999999996,420.7000000000001L853.2999999999996,422.4000000000001L854.8999999999996,422.9000000000001L855.9999999999997,423.1000000000001L856.7999999999996,423.1000000000001L859.7999999999996,422.6000000000001L864.4999999999997,422.2000000000001L865.9999999999997,422.4000000000001L866.8999999999996,422.6000000000001L875.4999999999997,433.80000000000007L877.0999999999997,435.30000000000007L877.8999999999996,435.9000000000001L885.7999999999996,440.4000000000001L886.5999999999996,441.1000000000001L887.3999999999995,442.50000000000006L888.1999999999995,444.70000000000005L890.5999999999995,456.6L890.8999999999994,457.40000000000003L891.5999999999995,458.6L892.7999999999995,459.5L900.3999999999995,461.6L901.7999999999995,462.3L902.6999999999995,462.8L903.7999999999995,464.7L905.1999999999995,468.5L906.2999999999995,470.2L909.9999999999995,473.9L913.5999999999996,475L914.2999999999996,475.5L916.4999999999997,477.3L916.4999999999997,479.8L923.0999999999997,477L925.0999999999997,477L926.5999999999997,478.1L927.3999999999996,479.8L927.9999999999997,481.6L928.9999999999997,482.90000000000003L930.2999999999996,483.70000000000005L935.1999999999996,485.90000000000003L945.1999999999996,493.3L955.1999999999996,496.8L958.1999999999996,498.7L963.7999999999996,508.3L964.6999999999996,510.40000000000003L961.4999999999995,515.6L954.9999999999995,519.6L932.3999999999995,528.9L929.7999999999995,530.6999999999999L927.6999999999995,533.5999999999999L928.6999999999995,534.5999999999999L930.4999999999994,535.6999999999999L930.3999999999994,538.6999999999999L928.3999999999994,541.0999999999999L921.8999999999994,545.1999999999999L920.0999999999995,547.0999999999999L919.7999999999995,550.3999999999999L920.8999999999995,553.4999999999999L922.8999999999995,556.3999999999999L929.6999999999995,564.1999999999998L933.3999999999995,569.2999999999998L936.0999999999996,575.0999999999998L937.8999999999995,581.7999999999998L939.1999999999995,597.1999999999998L938.4999999999994,604.9999999999998L936.4999999999994,611.5999999999998L931.5999999999995,617.5999999999998L925.8999999999994,620.3999999999997L919.6999999999994,622.2999999999997L913.3999999999994,625.4999999999998L903.6999999999994,634.7999999999997L893.6999999999994,640.4999999999998L891.7999999999994,641.9999999999998L891.4999999999994,644.7999999999997L893.5999999999995,646.9999999999998L899.6999999999995,650.5999999999998L900.8999999999995,651.7999999999998L902.9999999999995,654.9999999999999L904.1999999999996,655.8999999999999L905.5999999999996,655.9999999999999L908.1999999999996,654.9999999999999L910.1999999999996,655.1999999999999L914.0999999999996,657.3L915.5999999999996,659.5L916.5999999999996,666.6L928.0999999999996,691.9L926.9999999999995,701.8L925.5999999999996,706.9L922.6999999999996,704.5L922.9999999999995,701.2L924.6999999999996,697.4000000000001L925.5999999999996,694.0000000000001L924.9999999999995,691.3000000000001L910.0999999999996,665.6L904.7999999999996,660L877.5999999999996,640.2L870.1999999999996,632.8000000000001L876.5999999999996,624.9000000000001L877.7999999999996,624.3000000000001L878.9999999999997,622.0000000000001L881.3999999999996,619.1000000000001L882.8999999999996,615.7000000000002L881.4999999999997,612.1000000000001L874.3999999999996,603.1000000000001L873.1999999999996,600.6000000000001L872.9999999999995,597.3000000000002L874.5999999999996,596.2000000000002L877.2999999999996,595.4000000000002L880.7999999999996,593.2000000000002L878.1999999999996,592.4000000000002L871.7999999999996,592.7000000000002L868.6999999999996,591.5000000000001L866.9999999999995,589.7000000000002L862.6999999999996,581.1000000000001L863.3999999999996,579.9000000000001L864.1999999999996,577.9000000000001L865.6999999999996,577.9000000000001L867.7999999999996,581.5000000000001L868.3999999999996,583.3000000000001L868.6999999999996,586.2L869.5999999999996,586.7L876.0999999999996,584.1L876.0999999999996,582.5L873.0999999999996,581.2L869.9999999999995,578.8000000000001L867.2999999999995,576.0000000000001L865.6999999999995,573.4000000000001L864.1999999999995,573.4000000000001L862.4999999999994,576.1000000000001L858.4999999999994,576.3000000000002L853.9999999999994,575.7000000000002L850.5999999999995,576.4000000000002L848.9999999999994,573.4000000000002L846.3999999999994,570.3000000000002L843.3999999999994,568.7000000000002L840.1999999999994,570.4000000000002L833.2999999999994,566.3000000000002L831.2999999999994,562.9000000000002L832.5999999999993,558.2000000000002L831.0999999999993,558.1000000000001L829.5999999999993,558.2000000000002L830.4999999999993,554.6000000000001L827.3999999999993,552.9000000000001L822.7999999999993,551.9000000000001L819.1999999999992,550.7L817.8999999999993,553.3000000000001L816.6999999999992,553.1L815.2999999999993,552L812.9999999999993,552.1L811.9999999999993,553.2L811.6999999999994,554.8000000000001L810.7999999999994,556.2L807.8999999999994,556.7L800.5999999999995,555.6L797.6999999999995,556.7L796.5999999999995,561.1L798.1999999999995,559.9L799.5999999999995,559.8L807.2999999999995,571.4L808.2999999999995,574.9L812.7999999999995,582L814.4999999999995,584.1L817.3999999999995,585.6L825.5999999999996,588.1L828.8999999999995,588.5L831.8999999999995,590.3L834.7999999999995,593.9L837.4999999999995,596.1999999999999L840.1999999999996,594.5999999999999L840.3999999999996,599.9999999999999L839.8999999999996,602.2999999999998L838.5999999999997,603.7999999999998L838.5999999999997,605.2999999999998L841.8999999999996,609.7999999999998L843.1999999999996,617.5999999999998L842.6999999999996,625.6999999999998L840.1999999999996,631.1999999999998L835.2999999999996,631.2999999999998L827.2999999999996,628.6999999999998L819.7999999999996,625.0999999999998L816.1999999999996,622.0999999999998L817.4999999999995,622.0999999999998L818.4999999999995,622.8999999999997L819.2999999999995,623.1999999999997L822.2999999999995,623.5999999999997L818.0999999999995,621.6999999999997L816.2999999999995,620.5999999999997L814.4999999999995,618.8999999999996L814.4999999999995,622.0999999999997L801.8999999999995,616.4999999999997L797.3999999999995,615.8999999999996L783.9999999999995,617.4999999999997L780.2999999999995,617.4999999999997L777.0999999999995,615.9999999999997L774.1999999999995,612.9999999999997L768.7999999999995,606.0999999999997L749.7999999999995,588.2999999999997L748.5999999999995,586.1999999999997L747.5999999999995,585.9999999999997L743.0999999999995,584.1999999999997L741.7999999999995,583.2999999999997L741.0999999999995,576.3999999999997L747.7999999999995,566.0999999999998L749.2999999999995,564.2999999999998L752.7999999999995,562.1999999999998L755.0999999999995,561.2999999999998L756.1999999999995,561.9999999999999L756.8999999999995,563.2999999999998L758.3999999999995,561.7999999999998L763.6999999999995,553.5999999999998L765.1999999999995,552.0999999999998L762.3999999999995,548.4999999999998L765.6999999999995,544.5999999999998L771.6999999999995,541.2999999999998L777.0999999999995,539.8999999999999L777.0999999999995,538.5999999999999L772.3999999999994,537.9999999999999L769.9999999999994,538.1999999999999L768.3999999999994,539.4999999999999L765.7999999999994,542.2999999999998L763.2999999999994,543.4999999999999L762.3999999999994,541.3999999999999L763.4999999999994,537.5999999999999L766.4999999999994,533.8999999999999L771.9999999999994,531.1999999999998L774.4999999999994,529.4999999999998L775.4999999999994,526.9999999999998L774.0999999999995,524.7999999999997L771.2999999999995,523.1999999999997L768.6999999999995,521.0999999999997L768.1999999999995,517.1999999999997L772.3999999999995,519.3999999999997L774.3999999999995,519.9999999999998L777.0999999999996,520.0999999999998L775.7999999999996,518.4999999999998L774.1999999999996,517.2999999999997L770.9999999999995,515.5999999999997L769.6999999999996,514.4999999999997L768.8999999999996,513.3999999999996L767.6999999999996,512.6999999999996L765.1999999999996,512.5999999999996L767.7999999999996,510.8999999999996L767.4999999999997,509.79999999999956L765.8999999999996,508.8999999999996L765.1999999999996,508.09999999999957L766.1999999999996,505.6999999999996L767.2999999999996,503.8999999999996L768.7999999999996,502.29999999999956L770.9999999999997,500.3999999999996L765.1999999999997,485.09999999999957L764.0999999999997,483.1999999999996L760.4999999999997,479.1999999999996L758.9999999999997,480.6999999999996L754.0999999999997,474.2999999999996L749.5999999999997,466.7999999999996L743.8999999999996,460.9999999999996L735.0999999999997,459.3999999999996L735.5999999999997,453.6999999999996L730.7999999999997,448.7999999999996L724.1999999999997,445.39999999999964L719.2999999999997,444.0999999999996L702.0999999999997,427.5999999999996L685.1999999999997,419.69999999999965L682.4999999999997,417.5999999999996L661.3999999999996,409.19999999999965L659.9999999999997,409.19999999999965L658.5999999999997,410.29999999999967L657.3999999999996,410.29999999999967L656.3999999999996,409.29999999999967L655.4999999999997,407.5999999999997L652.4999999999997,408.8999999999997L650.6999999999997,407.3999999999997L648.6999999999997,405.29999999999967L644.9999999999997,404.69999999999965L647.2999999999996,400.5999999999996L644.1999999999996,394.7999999999996L638.4999999999995,389.6999999999996L632.9999999999995,387.8999999999996L632.9999999999995,389.3999999999996L634.8999999999995,389.6999999999996L636.1999999999995,390.2999999999996L639.0999999999995,392.39999999999964L633.3999999999994,391.39999999999964L624.3999999999994,385.99999999999966L618.5999999999995,384.79999999999967L613.0999999999995,384.3999999999997L583.7999999999995,376.1999999999997L578.1999999999995,375.6999999999997L575.4999999999994,376.1999999999997L572.6999999999995,377.0999999999997L569.7999999999995,377.6999999999997L566.8999999999995,377.1999999999997L564.2999999999995,375.0999999999997L563.3999999999995,372.3999999999997L562.3999999999995,370.29999999999967L559.3999999999995,369.5999999999997L560.2999999999995,371.1999999999997L560.7999999999995,372.7999999999997L557.0999999999995,369.89999999999975L548.9999999999994,364.59999999999974L547.3999999999994,361.2999999999997L546.6999999999994,358.1999999999997L544.6999999999994,356.7999999999997L542.2999999999994,355.7999999999997L539.8999999999994,354.2999999999997L539.1999999999994,352.09999999999974L539.4999999999993,349.69999999999976L538.8999999999993,348.19999999999976L535.4999999999993,348.39999999999975L536.2999999999993,345.89999999999975L536.0999999999992,343.39999999999975L535.4999999999992,341.19999999999976L535.4999999999992,339.19999999999976L536.7999999999992,336.69999999999976L540.4999999999992,332.89999999999975L541.9999999999992,329.09999999999974L543.5999999999992,327.19999999999976L545.0999999999992,324.7999999999998L545.7999999999993,321.5999999999998L545.0999999999992,318.9999999999998L543.3999999999992,316.69999999999976L539.8999999999992,313.19999999999976L531.0999999999992,299.9999999999998L528.5999999999992,297.9999999999998L524.9999999999992,296.4999999999998L525.4999999999992,293.0999999999998L528.5999999999992,287.9999999999998L523.1999999999992,283.5999999999998L522.1999999999992,281.3999999999998L523.3999999999993,278.0999999999998L517.0999999999993,276.1999999999998L497.69999999999936,278.0999999999998L497.69999999999936,276.4999999999998L500.39999999999935,275.39999999999975L503.79999999999933,274.9999999999998L511.39999999999935,275.0999999999998L511.39999999999935,273.5999999999998L504.39999999999935,273.1999999999998L498.19999999999936,272.0999999999998L492.4999999999994,270.1999999999998L487.2999999999994,267.3999999999998L480.69999999999936,261.7999999999998L479.69999999999936,260.69999999999976L478.2999999999994,260.2999999999998L475.4999999999994,258.3999999999998L473.5999999999994,256.2999999999998L474.5999999999994,255.29999999999978L470.8999999999994,253.39999999999978L461.99999999999943,244.99999999999977L457.1999999999994,242.59999999999977L454.8999999999994,240.49999999999977L453.49999999999943,239.99999999999977L452.3999999999994,240.49999999999977L451.49999999999943,241.29999999999978L450.1999999999994,241.49999999999977L448.29999999999944,239.99999999999977L449.59999999999945,237.59999999999977L449.99999999999943,236.09999999999977L454.3999999999994,234.79999999999976L456.1999999999994,234.79999999999976L457.5999999999994,234.89999999999975L460.7999999999994,234.49999999999974L461.7999999999994,234.89999999999975L463.0999999999994,235.89999999999975L464.1999999999994,236.29999999999976L465.0999999999994,236.19999999999976L466.1999999999994,235.79999999999976L467.0999999999994,235.69999999999976L468.4999999999994,235.89999999999975L469.4999999999994,236.29999999999976L471.5999999999994,237.39999999999975L473.5999999999994,239.09999999999974L476.2999999999994,242.49999999999974L477.0999999999994,243.29999999999976L478.7999999999994,244.69999999999976L480.8999999999994,245.69999999999976L481.99999999999943,246.09999999999977L482.49999999999943,245.99999999999977L482.8999999999994,245.69999999999976L482.7999999999994,244.79999999999976L481.8999999999994,242.39999999999975L481.6999999999994,241.19999999999976L481.8999999999994,239.09999999999977L482.49999999999943,238.09999999999977L483.49999999999943,236.89999999999978L487.49999999999943,233.39999999999978L488.3999999999994,232.6999999999998L492.5999999999994,230.89999999999978L493.4999999999994,229.59999999999977L493.5999999999994,227.89999999999978L493.3999999999994,227.09999999999977L493.0999999999994,226.49999999999977L492.0999999999994,225.19999999999976L491.6999999999994,224.19999999999976L491.99999999999943,222.79999999999976L493.29999999999944,219.99999999999974L493.49999999999943,219.29999999999976L493.99999999999943,214.99999999999974L494.99999999999943,212.09999999999974L495.09999999999945,211.49999999999974L494.89999999999947,210.29999999999976L494.59999999999945,209.89999999999975L492.99999999999943,208.39999999999975L492.3999999999994,207.49999999999974L492.2999999999994,206.19999999999973L492.3999999999994,205.59999999999974L493.3999999999994,203.89999999999975L494.3999999999994,202.89999999999975L495.6999999999994,201.99999999999974L497.6999999999994,200.99999999999974L498.49999999999943,200.29999999999976L500.3999999999994,198.29999999999976L501.6999999999994,197.39999999999975L503.3999999999994,196.89999999999975L504.99999999999943,196.89999999999975L506.09999999999945,196.89999999999975L507.39999999999947,197.29999999999976L508.29999999999944,197.79999999999976L511.6999999999994,200.59999999999977L516.6999999999994,208.39999999999978L518.0999999999993,210.09999999999977L519.8999999999993,211.39999999999978L521.0999999999993,211.49999999999977L522.8999999999993,211.39999999999978L527.0999999999993,210.59999999999977L530.0999999999993,209.79999999999976L531.4999999999993,208.89999999999975L532.5999999999993,208.49999999999974L534.2999999999994,208.69999999999973L538.1999999999994,211.29999999999973L539.3999999999994,214.69999999999973L540.2999999999994,215.99999999999974L541.8999999999994,217.39999999999975L541.9999999999994,218.19999999999976L541.7999999999994,219.39999999999975L539.4999999999994,223.59999999999974L538.7999999999994,225.29999999999973L537.4999999999994,230.19999999999973L537.6999999999995,231.99999999999974L538.8999999999995,234.19999999999973L539.1999999999995,236.29999999999973L538.3999999999995,241.89999999999972L539.3999999999995,245.39999999999972L541.7999999999995,250.49999999999972L543.0999999999995,252.49999999999972L546.6999999999995,256.8999999999997L548.4999999999994,259.79999999999967L552.0999999999995,264.0999999999997L553.3999999999994,266.29999999999967L554.0999999999995,267.79999999999967L555.2999999999995,267.99999999999966L556.8999999999995,267.49999999999966L558.6999999999995,266.19999999999965L559.1999999999995,265.89999999999964L560.7999999999995,266.69999999999965L563.5999999999995,271.29999999999967L563.3999999999994,272.8999999999997L563.1999999999994,273.3999999999997L562.4999999999993,274.0999999999997L561.3999999999993,274.6999999999997L557.9999999999993,275.9999999999997L547.1999999999994,283.09999999999974L544.7999999999994,283.7999999999997L543.0999999999993,285.4999999999997L538.9999999999993,291.8999999999997L537.4999999999993,292.5999999999997L536.6999999999994,293.3999999999997L536.5999999999993,293.9999999999997L536.6999999999994,295.2999999999997L536.2999999999994,296.4999999999997L537.0999999999993,297.2999999999997L538.5999999999993,298.39999999999975L543.1999999999994,300.19999999999976L546.7999999999994,301.19999999999976L549.5999999999993,301.39999999999975L552.2999999999994,301.89999999999975L554.1999999999994,303.39999999999975L558.9999999999993,309.7999999999997Z" class="sm_state sm_state_CRI1330" opacity="1" stroke-opacity="1" stroke-width="2.1509550000000006" stroke-linejoin="round" transform="matrix(0.2354,0,0,0.2354,0,0)" fill-opacity="1"/><path style="opacity: 1; cursor: pointer; stroke-opacity: 1; stroke-linejoin: round; fill-opacity: 1;" fill="#88a4bc" stroke="#ffffff" d="M649.5,95.1L649.5,96L648.9,143.6L648.5,179.5L648.1,204.9L647.8000000000001,235.5L645.2,269.3L645.2,269.8L641.2,274.1L640.1,275.90000000000003L639.9,277.1L639.9,278.3L640.3,280.3L637.0999999999999,283.8L630.9999999999999,285.8L616.2999999999998,289.90000000000003L612.3999999999999,290.50000000000006L611.2999999999998,290.1000000000001L608.6999999999998,289.80000000000007L606.7999999999998,289.30000000000007L602.3999999999999,288.50000000000006L598.1999999999998,287.30000000000007L592.7999999999998,288.4000000000001L583.0999999999998,289.2000000000001L576.2999999999998,292.2000000000001L574.5999999999998,293.3000000000001L574.0999999999998,294.10000000000014L571.4999999999998,296.60000000000014L567.7999999999997,298.60000000000014L566.2999999999997,299.70000000000016L565.6999999999997,300.50000000000017L565.5999999999997,301.8000000000002L561.5999999999997,306.8000000000002L561.1999999999997,307.70000000000016L560.8999999999997,309.40000000000015L560.5999999999998,309.8000000000001L558.9999999999998,309.8000000000001L554.1999999999998,303.40000000000015L552.2999999999998,301.90000000000015L549.5999999999998,301.40000000000015L546.7999999999998,301.20000000000016L543.1999999999998,300.20000000000016L538.5999999999998,298.40000000000015L537.0999999999998,297.3000000000001L536.2999999999998,296.5000000000001L536.6999999999998,295.3000000000001L536.5999999999998,294.0000000000001L536.6999999999998,293.4000000000001L537.4999999999998,292.6000000000001L538.9999999999998,291.9000000000001L543.0999999999998,285.5000000000001L544.7999999999998,283.8000000000001L547.1999999999998,283.10000000000014L557.9999999999998,276.0000000000001L561.3999999999997,274.7000000000001L562.4999999999998,274.1000000000001L563.1999999999998,273.4000000000001L563.3999999999999,272.9000000000001L563.5999999999999,271.30000000000007L560.8,266.70000000000005L559.1999999999999,265.90000000000003L558.6999999999999,266.20000000000005L556.9,267.50000000000006L555.3,268.00000000000006L554.0999999999999,267.80000000000007L553.3999999999999,266.30000000000007L552.0999999999999,264.1000000000001L548.4999999999999,259.80000000000007L546.6999999999999,256.9000000000001L543.0999999999999,252.50000000000009L541.8,250.50000000000009L539.4,245.4000000000001L538.4,241.9000000000001L539.1999999999999,236.3000000000001L538.9,234.2000000000001L537.6999999999999,232.0000000000001L537.4999999999999,230.2000000000001L538.7999999999998,225.3000000000001L539.4999999999999,223.6000000000001L541.7999999999998,219.40000000000012L541.9999999999999,218.20000000000013L541.8999999999999,217.40000000000012L540.2999999999998,216.0000000000001L539.3999999999999,214.7000000000001L538.1999999999998,211.3000000000001L534.2999999999998,208.7000000000001L532.5999999999998,208.5000000000001L531.4999999999998,208.90000000000012L530.0999999999998,209.80000000000013L527.0999999999998,210.60000000000014L522.8999999999997,211.40000000000015L521.0999999999998,211.50000000000014L519.8999999999997,211.40000000000015L518.0999999999998,210.10000000000014L516.6999999999998,208.40000000000015L511.6999999999998,200.60000000000014L515.2999999999998,193.90000000000015L515.5999999999998,191.60000000000014L514.7999999999998,190.20000000000013L514.1999999999998,188.70000000000013L513.2999999999998,184.60000000000014L516.6999999999998,172.30000000000013L511.8999999999998,162.70000000000013L510.2999999999998,160.20000000000013L497.7999999999998,150.50000000000014L493.7999999999998,148.50000000000014L481.7999999999998,145.30000000000015L478.69999999999976,144.10000000000016L476.39999999999975,141.50000000000017L470.4999999999998,136.20000000000016L469.7999999999998,135.40000000000015L468.5999999999998,133.50000000000014L467.8999999999998,131.90000000000015L466.8999999999998,125.90000000000015L464.3999999999998,121.40000000000015L461.2999999999998,116.50000000000014L459.9999999999998,115.00000000000014L458.5999999999998,114.10000000000014L455.5999999999998,112.80000000000014L453.1999999999998,112.10000000000014L441.49999999999983,109.30000000000014L438.09999999999985,108.20000000000014L436.79999999999984,107.20000000000014L435.09999999999985,105.60000000000015L428.59999999999985,101.20000000000014L426.89999999999986,100.30000000000014L425.6999999999999,99.80000000000014L424.2999999999999,99.70000000000014L422.7999999999999,99.70000000000014L420.0999999999999,100.00000000000014L415.2999999999999,101.20000000000014L409.5999999999999,101.80000000000014L403.0999999999999,101.50000000000014L397.69999999999993,90.80000000000014L395.69999999999993,87.90000000000013L394.29999999999995,86.80000000000014L393.19999999999993,86.40000000000013L388.19999999999993,85.80000000000014L386.8999999999999,85.30000000000014L381.5999999999999,82.20000000000014L379.0999999999999,80.30000000000014L369.0999999999999,68.70000000000014L368.3999999999999,67.40000000000015L368.3999999999999,66.30000000000015L369.19999999999993,65.30000000000015L376.69999999999993,64.70000000000016L378.69999999999993,63.90000000000016L379.29999999999995,62.80000000000016L379.79999999999995,61.90000000000016L396.99999999999994,50.100000000000165L407.3999999999999,38.200000000000166L408.2999999999999,37.600000000000165L409.6999999999999,37.30000000000017L410.9999999999999,36.90000000000017L412.6999999999999,36.50000000000017L413.1999999999999,36.00000000000017L444.6999999999999,47.70000000000017L479.9999999999999,60.900000000000176L485.0999999999999,61.400000000000176L490.19999999999993,59.60000000000018L528.9999999999999,33.80000000000018L535.8999999999999,32.20000000000018L539.7999999999998,33.90000000000018L548.0999999999998,39.90000000000018L551.8999999999997,40.500000000000185L556.6999999999997,40.20000000000019L561.6999999999997,41.80000000000019L572.5999999999997,46.70000000000019L573.7999999999997,47.000000000000185L574.9999999999998,47.40000000000018L575.9999999999998,48.000000000000185L576.8999999999997,48.70000000000019L581.8999999999997,54.90000000000019L583.7999999999997,56.50000000000019L585.7999999999997,57.60000000000019L588.0999999999997,58.60000000000019L590.4999999999997,58.800000000000196L592.5999999999997,57.9000000000002L604.3999999999996,50.200000000000195L606.1999999999996,49.10000000000019L608.2999999999996,50.10000000000019L608.7999999999996,51.800000000000196L608.7999999999996,54.10000000000019L609.1999999999996,56.800000000000196L610.1999999999996,58.5000000000002L613.0999999999996,62.1000000000002L613.6999999999996,63.7000000000002L615.9999999999995,65.9000000000002L626.1999999999996,69.80000000000021L628.4999999999995,71.4000000000002L630.4999999999995,73.60000000000021L634.6999999999996,75.7000000000002L638.4999999999995,78.9000000000002L639.2999999999995,84.30000000000021L636.1999999999995,85.9000000000002L635.2999999999995,86.5000000000002L634.2999999999995,88.2000000000002L634.7999999999995,89.5000000000002L635.5999999999995,90.4000000000002L636.0999999999995,91.2000000000002L640.9999999999994,95.10000000000021L642.0999999999995,96.60000000000021L644.5999999999995,94.80000000000021L647.9999999999994,94.9000000000002L649.4999999999994,95.10000000000021Z" class="sm_state sm_state_CRI1333" opacity="1" stroke-opacity="1" stroke-width="2.1509550000000006" stroke-linejoin="round" transform="matrix(0.2354,0,0,0.2354,0,0)" fill-opacity="1"/><path style="opacity: 1; cursor: pointer; stroke-opacity: 1; stroke-linejoin: round; fill-opacity: 1;" fill="#88a4bc" stroke="#ffffff" d="M413.2,36L412.7,36.5L411,36.9L409.7,37.3L408.3,37.599999999999994L407.40000000000003,38.199999999999996L397.00000000000006,50.099999999999994L379.80000000000007,61.89999999999999L379.30000000000007,62.79999999999999L378.70000000000005,63.89999999999999L376.70000000000005,64.69999999999999L369.20000000000005,65.29999999999998L368.40000000000003,66.29999999999998L368.40000000000003,67.39999999999998L369.1,68.69999999999997L379.1,80.29999999999997L381.6,82.19999999999997L386.90000000000003,85.29999999999997L388.20000000000005,85.79999999999997L393.20000000000005,86.39999999999996L394.30000000000007,86.79999999999997L395.70000000000005,87.89999999999996L397.70000000000005,90.79999999999997L403.1,101.49999999999997L409.6,101.79999999999997L415.3,101.19999999999997L420.1,99.99999999999997L422.8,99.69999999999997L424.3,99.69999999999997L425.7,99.79999999999997L426.9,100.29999999999997L428.59999999999997,101.19999999999997L435.09999999999997,105.59999999999998L436.79999999999995,107.19999999999997L438.09999999999997,108.19999999999997L441.49999999999994,109.29999999999997L453.19999999999993,112.09999999999997L455.5999999999999,112.79999999999997L458.5999999999999,114.09999999999997L459.9999999999999,114.99999999999997L461.2999999999999,116.49999999999997L464.3999999999999,121.39999999999998L466.8999999999999,125.89999999999998L467.8999999999999,131.89999999999998L468.5999999999999,133.49999999999997L469.7999999999999,135.39999999999998L470.4999999999999,136.2L476.39999999999986,141.5L478.6999999999999,144.1L481.7999999999999,145.29999999999998L493.7999999999999,148.49999999999997L497.7999999999999,150.49999999999997L510.2999999999999,160.19999999999996L511.8999999999999,162.69999999999996L516.6999999999999,172.29999999999995L513.3,184.59999999999997L514.1999999999999,188.69999999999996L514.8,190.19999999999996L515.5999999999999,191.59999999999997L515.3,193.89999999999998L511.69999999999993,200.59999999999997L508.29999999999995,197.79999999999995L507.4,197.29999999999995L506.09999999999997,196.89999999999995L504.99999999999994,196.89999999999995L503.3999999999999,196.89999999999995L501.69999999999993,197.39999999999995L500.3999999999999,198.29999999999995L498.49999999999994,200.29999999999995L497.69999999999993,200.99999999999994L495.69999999999993,201.99999999999994L494.3999999999999,202.89999999999995L493.3999999999999,203.89999999999995L492.3999999999999,205.59999999999994L492.2999999999999,206.19999999999993L492.3999999999999,207.49999999999994L492.99999999999994,208.39999999999995L494.59999999999997,209.89999999999995L494.9,210.29999999999995L495.09999999999997,211.49999999999994L494.99999999999994,212.09999999999994L493.99999999999994,214.99999999999994L493.49999999999994,219.29999999999995L493.29999999999995,219.99999999999994L491.99999999999994,222.79999999999995L491.69999999999993,224.19999999999996L492.0999999999999,225.19999999999996L493.0999999999999,226.49999999999997L493.3999999999999,227.09999999999997L493.5999999999999,227.89999999999998L493.4999999999999,229.59999999999997L492.5999999999999,230.89999999999998L488.3999999999999,232.7L487.49999999999994,233.39999999999998L483.49999999999994,236.89999999999998L482.49999999999994,238.09999999999997L481.8999999999999,239.09999999999997L481.69999999999993,241.19999999999996L481.8999999999999,242.39999999999995L482.7999999999999,244.79999999999995L482.8999999999999,245.69999999999996L482.49999999999994,245.99999999999997L481.99999999999994,246.09999999999997L480.8999999999999,245.69999999999996L478.7999999999999,244.69999999999996L477.0999999999999,243.29999999999995L476.2999999999999,242.49999999999994L473.5999999999999,239.09999999999994L471.5999999999999,237.39999999999995L469.4999999999999,236.29999999999995L468.4999999999999,235.89999999999995L467.0999999999999,235.69999999999996L466.19999999999993,235.79999999999995L465.0999999999999,236.19999999999996L464.19999999999993,236.29999999999995L463.0999999999999,235.89999999999995L461.7999999999999,234.89999999999995L460.7999999999999,234.49999999999994L457.5999999999999,234.89999999999995L456.19999999999993,234.79999999999995L454.3999999999999,234.79999999999995L449.99999999999994,236.09999999999997L448.99999999999994,235.39999999999998L448.19999999999993,234.99999999999997L445.29999999999995,232.39999999999998L441.4,233.7L426.5,233.89999999999998L422.6,232.89999999999998L419.1,230.39999999999998L413.6,224.7L413.6,223.29999999999998L414.90000000000003,219.2L411.00000000000006,214.5L401.6000000000001,207.9L403.00000000000006,212.4L409.30000000000007,217.1L410.80000000000007,222.5L411.30000000000007,232.9L412.70000000000005,238.9L415.20000000000005,243L412.40000000000003,244.9L412.8,248L415.40000000000003,250.9L422.1,253.20000000000002L424.5,255.8L427.3,261.40000000000003L428.7,261.40000000000003L430.5,260.70000000000005L431.2,261.30000000000007L431.59999999999997,262.80000000000007L429.7,262.9000000000001L427.7,262.7000000000001L425.8,262.1000000000001L424.2,261.4000000000001L424.2,262.80000000000007L428.3,266.50000000000006L426.1,273.70000000000005L424.8,275.50000000000006L420,276.6000000000001L418.9,277.1000000000001L413.29999999999995,280.4000000000001L412.19999999999993,280.7000000000001L411.79999999999995,280.5000000000001L410.59999999999997,279.4000000000001L409.2,279.5000000000001L406.9,280.2000000000001L401.5,282.8000000000001L399.5,284.7000000000001L398.5,286.4000000000001L398.9,287.7000000000001L399.7,288.7000000000001L400.5,289.5000000000001L401.4,289.9000000000001L402.29999999999995,290.1000000000001L404.4,289.80000000000007L405.79999999999995,289.80000000000007L407.69999999999993,290.20000000000005L409.19999999999993,291.00000000000006L410.3999999999999,291.30000000000007L412.3999999999999,291.30000000000007L413.69999999999993,291.6000000000001L415.0999999999999,292.4000000000001L416.7999999999999,293.0000000000001L417.7999999999999,293.60000000000014L418.6999999999999,294.90000000000015L419.89999999999986,296.00000000000017L420.9999999999999,298.00000000000017L421.4999999999999,299.00000000000017L421.6999999999999,300.3000000000002L421.9999999999999,301.6000000000002L422.2999999999999,302.00000000000017L423.2999999999999,302.6000000000002L426.4999999999999,303.3000000000002L426.89999999999986,303.70000000000016L426.9999999999999,304.3000000000002L426.39999999999986,305.70000000000016L425.4999999999999,307.90000000000015L423.2999999999999,316.50000000000017L423.1999999999999,317.8000000000002L423.4999999999999,318.8000000000002L424.0999999999999,319.50000000000017L423.9999999999999,320.40000000000015L422.7999999999999,321.40000000000015L421.8999999999999,323.00000000000017L421.19999999999993,325.00000000000017L420.79999999999995,325.90000000000015L420.19999999999993,326.50000000000017L418.99999999999994,327.40000000000015L417.59999999999997,330.3000000000001L415.29999999999995,331.40000000000015L414.79999999999995,332.00000000000017L413.59999999999997,329.20000000000016L412.7,328.20000000000016L410.7,326.90000000000015L405.2,324.60000000000014L404.7,322.8000000000001L404.8,320.8000000000001L404.6,319.3000000000001L399.40000000000003,313.5000000000001L392.20000000000005,309.4000000000001L368.6,300.9000000000001L366.5,301.4000000000001L363.4,303.6000000000001L361.9,304.1000000000001L359.79999999999995,303.6000000000001L356.9,301.4000000000001L354.4,300.9000000000001L353,300.80000000000007L352.5,300.4000000000001L352.3,299.80000000000007L351.5,298.80000000000007L349.9,298.1000000000001L348.7,298.4000000000001L347.8,299.1000000000001L347.7,299.50000000000006L335.3,295.50000000000006L329.3,294.6000000000001L327.90000000000003,293.7000000000001L326.8,292.7000000000001L325.1,291.8000000000001L322.6,291.90000000000015L321,292.90000000000015L319.6,293.00000000000017L317.6,290.40000000000015L319.20000000000005,286.3000000000001L316.90000000000003,280.7000000000001L294.40000000000003,253.0000000000001L293.1,250.5000000000001L291.3,244.6000000000001L288.6,240.40000000000012L280.1,219.30000000000013L279.3,213.0000000000001L278.40000000000003,209.2000000000001L277.1,206.4000000000001L280.1,203.4000000000001L281.3,201.3000000000001L280.90000000000003,199.50000000000009L276.20000000000005,193.50000000000009L273.30000000000007,191.70000000000007L274.9000000000001,189.50000000000009L278.7000000000001,186.50000000000009L281.3000000000001,182.70000000000007L283.10000000000014,179.00000000000009L286.8000000000001,180.50000000000009L288.8000000000001,178.20000000000007L290.40000000000015,174.70000000000007L295.10000000000014,171.20000000000007L293.3000000000001,167.20000000000007L290.0000000000001,163.00000000000009L287.7000000000001,160.60000000000008L289.6000000000001,159.4000000000001L290.7000000000001,159.10000000000008L290.7000000000001,157.60000000000008L287.7000000000001,157.60000000000008L287.7000000000001,156.10000000000008L290.2000000000001,155.60000000000008L291.8000000000001,154.00000000000009L293.7000000000001,149.8000000000001L295.2000000000001,149.8000000000001L298.2000000000001,152.3000000000001L302.5000000000001,150.50000000000009L306.9000000000001,148.10000000000008L310.2000000000001,148.50000000000009L311.6000000000001,148.50000000000009L311.30000000000007,145.50000000000009L312.1000000000001,144.10000000000008L313.30000000000007,143.4000000000001L314.50000000000006,142.4000000000001L316.50000000000006,138.9000000000001L317.30000000000007,139.10000000000008L320.00000000000006,139.30000000000007L326.6000000000001,132.40000000000006L326.1000000000001,130.60000000000005L324.9000000000001,129.10000000000005L322.1000000000001,127.20000000000005L313.1000000000001,136.30000000000004L312.9000000000001,135.50000000000003L312.9000000000001,134.90000000000003L312.7000000000001,134.50000000000003L311.6000000000001,134.60000000000002L311.6000000000001,133.20000000000002L314.1000000000001,130.50000000000003L315.7000000000001,129.30000000000004L317.6000000000001,128.70000000000005L316.1000000000001,127.20000000000005L315.2000000000001,128.30000000000004L314.5000000000001,128.70000000000005L315.0000000000001,126.80000000000004L315.10000000000014,126.20000000000005L317.60000000000014,125.50000000000004L317.60000000000014,124.10000000000004L316.10000000000014,124.10000000000004L316.10000000000014,122.40000000000003L319.8000000000001,119.50000000000003L320.5000000000001,111.90000000000003L319.2000000000001,97.20000000000003L315.9000000000001,93.30000000000003L308.7000000000001,90.10000000000002L301.4000000000001,88.90000000000002L298.1000000000001,91.20000000000002L296.80000000000007,91.20000000000002L290.80000000000007,86.10000000000002L289.00000000000006,84.20000000000002L290.1000000000001,84.60000000000002L291.4000000000001,84.00000000000003L291.9000000000001,82.70000000000003L290.7000000000001,81.20000000000003L289.1000000000001,80.80000000000003L284.80000000000007,81.20000000000003L283.1000000000001,81.20000000000003L276.6000000000001,78.70000000000003L271.50000000000006,75.80000000000003L265.90000000000003,73.20000000000003L257.6,72.20000000000003L257.6,70.50000000000003L262.6,69.30000000000003L271.90000000000003,65.00000000000003L277.1,64.40000000000003L276.20000000000005,63.000000000000036L275.6,62.20000000000004L274.6,61.70000000000004L272.6,61.40000000000004L272.6,59.90000000000004L283.40000000000003,59.20000000000004L286.20000000000005,59.90000000000004L287.30000000000007,61.600000000000044L287.00000000000006,63.600000000000044L286.50000000000006,65.20000000000005L286.90000000000003,65.90000000000005L287.8,66.40000000000005L290.7,69.00000000000004L292,69.00000000000004L293.7,67.30000000000004L293.7,65.90000000000003L291.2,63.500000000000036L293.59999999999997,61.900000000000034L298.2,61.20000000000003L302.59999999999997,61.400000000000034L304.09999999999997,62.10000000000004L306.09999999999997,64.00000000000004L307.9,64.40000000000005L309.29999999999995,63.90000000000005L309.9,62.60000000000005L309.7,61.10000000000005L308.59999999999997,59.90000000000005L308.59999999999997,58.200000000000045L311.9,57.00000000000004L312.79999999999995,54.50000000000004L311.99999999999994,51.600000000000044L310.19999999999993,49.00000000000004L308.69999999999993,47.90000000000004L304.99999999999994,46.30000000000004L303.3999999999999,45.20000000000004L301.49999999999994,43.30000000000004L301.49999999999994,42.70000000000004L302.59999999999997,42.500000000000036L304.09999999999997,41.400000000000034L307.49999999999994,38.30000000000003L309.3999999999999,39.400000000000034L311.69999999999993,41.500000000000036L316.0999999999999,41.400000000000034L318.69999999999993,39.000000000000036L318.19999999999993,35.70000000000004L315.79999999999995,32.60000000000004L313.09999999999997,30.600000000000037L311.2,29.800000000000036L316.5,21.20000000000004L320.5,12.400000000000038L326.7,4.100000000000037L334,1.0000000000000369L340.3,4.300000000000036L346.5,9.800000000000036L353.6,13.800000000000036L375.70000000000005,22.100000000000037L413.20000000000005,36.000000000000036Z" class="sm_state sm_state_CRI1334" opacity="1" stroke-opacity="1" stroke-width="2.1509550000000006" stroke-linejoin="round" transform="matrix(0.2354,0,0,0.2354,0,0)" fill-opacity="1"/><desc>Created with Raphal 2.1.0</desc><defs/><circle cx="117.74487563771491" cy="64.99091330487894" r="11.471760000000002" fill="#ef106a" stroke="#ffffff" style="opacity: 10; cursor: pointer;" stroke-width="2.2943520000000004" opacity="10" transform="matrix(0.2354,0,0,0.2354,90.0324,49.6946)" class="sm_location sm_location_0"/><circle cx="107.68801250063586" cy="66.3702741351312" r="11.471760000000002" fill="#ef106a" stroke="#ffffff" style="opacity: 10; cursor: pointer;" stroke-width="2.2943520000000004" opacity="10" transform="matrix(0.2354,0,0,0.2354,82.3425,50.7493)" class="sm_location sm_location_1"/><circle cx="103.39118973169448" cy="80.33475939372039" r="11.471760000000002" fill="#ef106a" stroke="#ffffff" style="opacity: 10; cursor: pointer;" stroke-width="2.2943520000000004" opacity="10" transform="matrix(0.2354,0,0,0.2354,79.057,61.4271)" class="sm_location sm_location_2"/><circle cx="113.70632924554653" cy="72.47782687963465" r="11.471760000000002" fill="#ef106a" stroke="#ffffff" style="opacity: 10; cursor: pointer;" stroke-width="2.2943520000000004" opacity="10" transform="matrix(0.2354,0,0,0.2354,86.9443,55.4194)" class="sm_location sm_location_3"/><circle cx="126.6007201747196" cy="63.742929153380395" r="11.471760000000002" fill="#ef106a" stroke="#ffffff" style="opacity: 10; cursor: pointer;" stroke-width="2.2943520000000004" opacity="10" transform="matrix(0.2354,0,0,0.2354,96.8039,48.7404)" class="sm_location sm_location_4"/><circle cx="129.30326940301694" cy="78.94226477542284" r="11.471760000000002" fill="#ef106a" stroke="#ffffff" style="opacity: 10; cursor: pointer;" stroke-width="2.2943520000000004" opacity="10" transform="matrix(0.2354,0,0,0.2354,98.8704,60.3624)" class="sm_location sm_location_5"/><circle cx="122.30080954628217" cy="58.505120121409334" r="11.471760000000002" fill="#ef106a" stroke="#ffffff" style="opacity: 10; cursor: pointer;" stroke-width="2.2943520000000004" opacity="10" transform="matrix(0.2354,0,0,0.2354,93.516,44.7353)" class="sm_location sm_location_6"/><circle cx="144.66898329410733" cy="89.0375742055322" r="11.471760000000002" fill="#ef106a" stroke="#ffffff" style="opacity: 10; cursor: pointer;" stroke-width="2.2943520000000004" opacity="10" transform="matrix(0.2354,0,0,0.2354,110.6196,68.0816)" class="sm_location sm_location_7"/><circle cx="153.2709608521003" cy="92.52121606207496" r="11.471760000000002" fill="#ef106a" stroke="#ffffff" style="opacity: 10; cursor: pointer;" stroke-width="2.2943520000000004" opacity="10" transform="matrix(0.2354,0,0,0.2354,117.197,70.7454)" class="sm_location sm_location_8"/><circle cx="118.85508295341009" cy="48.02238381561165" r="11.471760000000002" fill="#ef106a" stroke="#ffffff" style="opacity: 10; cursor: pointer;" stroke-width="2.2943520000000004" opacity="10" transform="matrix(0.2354,0,0,0.2354,90.8813,36.7198)" class="sm_location sm_location_9"/><circle cx="110.27939793505557" cy="64.43390904041425" r="11.471760000000002" fill="#ef106a" stroke="#ffffff" style="opacity: 10; cursor: pointer;" stroke-width="2.2943520000000004" opacity="10" transform="matrix(0.2354,0,0,0.2354,84.324,49.2687)" class="sm_location sm_location_10"/><circle cx="101.88326863179837" cy="58.53354091118585" r="11.471760000000002" fill="#ef106a" stroke="#ffffff" style="opacity: 10; cursor: pointer;" stroke-width="2.2943520000000004" opacity="10" transform="matrix(0.2354,0,0,0.2354,77.904,44.7571)" class="sm_location sm_location_11"/></svg>